<svg width="21" height="20" viewBox="0 0 21 20" fill="none" xmlns="http://www.w3.org/2000/svg">
<g id="user (2) 1" clip-path="url(#clip0_201_4766)">
<path id="Vector" d="M10.1452 9.99903C11.1389 9.99903 12.1103 9.70578 12.9365 9.15637C13.7627 8.60697 14.4067 7.82607 14.787 6.91244C15.1672 5.99881 15.2667 4.99348 15.0729 4.02357C14.879 3.05367 14.4005 2.16275 13.6979 1.46349C12.9952 0.764229 12.1 0.288025 11.1254 0.0950993C10.1508 -0.0978268 9.14063 0.00118987 8.22259 0.379628C7.30454 0.758066 6.51988 1.39893 5.96782 2.22117C5.41576 3.04342 5.12109 4.01012 5.12109 4.99903C5.12242 6.3247 5.65218 7.5957 6.5941 8.5331C7.53603 9.47049 8.81317 9.9977 10.1452 9.99903ZM10.1452 1.66569C10.8077 1.66569 11.4553 1.86119 12.0061 2.22746C12.5569 2.59373 12.9862 3.11433 13.2397 3.72341C13.4932 4.3325 13.5596 5.00272 13.4303 5.64933C13.3011 6.29593 12.9821 6.88987 12.5137 7.35605C12.0452 7.82222 11.4484 8.13969 10.7987 8.26831C10.149 8.39693 9.4755 8.33092 8.86347 8.07862C8.25144 7.82633 7.72833 7.39909 7.36029 6.85093C6.99225 6.30276 6.79581 5.6583 6.79581 4.99903C6.79581 4.11497 7.1487 3.26712 7.77684 2.642C8.40498 2.01688 9.25692 1.66569 10.1452 1.66569V1.66569Z" fill="#AFAFAF"/>
<path id="Vector_2" d="M10.1446 11.667C8.14658 11.6692 6.231 12.4601 4.81816 13.8661C3.40532 15.2722 2.61061 17.1785 2.6084 19.167C2.6084 19.388 2.69662 19.6 2.85366 19.7562C3.01069 19.9125 3.22368 20.0003 3.44576 20.0003C3.66784 20.0003 3.88082 19.9125 4.03786 19.7562C4.1949 19.6 4.28312 19.388 4.28312 19.167C4.28312 17.6199 4.90067 16.1362 5.99991 15.0422C7.09916 13.9482 8.59006 13.3337 10.1446 13.3337C11.6992 13.3337 13.1901 13.9482 14.2893 15.0422C15.3886 16.1362 16.0061 17.6199 16.0061 19.167C16.0061 19.388 16.0944 19.6 16.2514 19.7562C16.4084 19.9125 16.6214 20.0003 16.8435 20.0003C17.0656 20.0003 17.2786 19.9125 17.4356 19.7562C17.5926 19.6 17.6809 19.388 17.6809 19.167C17.6786 17.1785 16.8839 15.2722 15.4711 13.8661C14.0583 12.4601 12.1427 11.6692 10.1446 11.667V11.667Z" fill="#AFAFAF"/>
</g>
<defs>
<clipPath id="clip0_201_4766">
<rect width="20.0966" height="20" fill="white" transform="translate(0.0966797)"/>
</clipPath>
</defs>
</svg>
