<svg width="50" height="50" viewBox="0 0 50 50" fill="none" xmlns="http://www.w3.org/2000/svg">
<g clip-path="url(#clip0_26_1111)">
<path d="M25 50C38.8071 50 50 38.8071 50 25C50 11.1929 38.8071 0 25 0C11.1929 0 0 11.1929 0 25C0 38.8071 11.1929 50 25 50Z" fill="#1DCBB6"/>
<mask id="mask0_26_1111" style="mask-type:alpha" maskUnits="userSpaceOnUse" x="3" y="13" width="45" height="43">
<rect x="3" y="13" width="45" height="42.4528" fill="#C4C4C4"/>
</mask>
<g mask="url(#mask0_26_1111)">
<path d="M34.6128 18.1111H7.88038C7.06017 18.1111 6.39526 18.776 6.39526 19.5962C6.39526 20.4164 7.06017 21.0813 7.88038 21.0813H34.6128C35.433 21.0813 36.0979 20.4164 36.0979 19.5962C36.0979 18.776 35.433 18.1111 34.6128 18.1111Z" fill="white"/>
<path opacity="0.7" fill-rule="evenodd" clip-rule="evenodd" d="M44.2651 29.9924H33.8691V53.7546H44.2651V29.9924ZM40.8634 32.9631H37.2787C37.0383 32.9631 36.8434 33.158 36.8434 33.3984V36.9832C36.8434 37.2236 37.0383 37.4185 37.2787 37.4185H40.8634C41.1039 37.4185 41.2988 37.2236 41.2988 36.9832V33.3984C41.2988 33.158 41.1039 32.9631 40.8634 32.9631ZM37.2787 40.3899H40.8634C41.1039 40.3899 41.2988 40.5848 41.2988 40.8252V44.41C41.2988 44.6504 41.1039 44.8453 40.8634 44.8453H37.2787C37.0383 44.8453 36.8434 44.6504 36.8434 44.41V40.8252C36.8434 40.5848 37.0383 40.3899 37.2787 40.3899Z" fill="white"/>
<path fill-rule="evenodd" clip-rule="evenodd" d="M8.62695 21.0818H33.8742V53.7547H8.62695V21.0818ZM16.7938 43.3585H25.7045V53.7545H16.7938V43.3585ZM15.6142 27.765H12.0294C11.789 27.765 11.5941 27.9599 11.5941 28.2003V31.7851C11.5941 32.0255 11.789 32.2204 12.0294 32.2204H15.6142C15.8546 32.2204 16.0495 32.0255 16.0495 31.7851V28.2003C16.0495 27.9599 15.8546 27.765 15.6142 27.765ZM19.458 27.765H23.0427C23.2832 27.765 23.4781 27.9599 23.4781 28.2003V31.7851C23.4781 32.0255 23.2832 32.2204 23.0427 32.2204H19.458C19.2175 32.2204 19.0227 32.0255 19.0227 31.7851V28.2003C19.0227 27.9599 19.2175 27.765 19.458 27.765ZM30.4677 27.765H26.883C26.6425 27.765 26.4477 27.9599 26.4477 28.2003V31.7851C26.4477 32.0255 26.6425 32.2204 26.883 32.2204H30.4677C30.7082 32.2204 30.9031 32.0255 30.9031 31.7851V28.2003C30.9031 27.9599 30.7082 27.765 30.4677 27.765ZM12.0294 35.1909H15.6142C15.8546 35.1909 16.0495 35.3858 16.0495 35.6262V39.211C16.0495 39.4514 15.8546 39.6463 15.6142 39.6463H12.0294C11.789 39.6463 11.5941 39.4514 11.5941 39.211V35.6262C11.5941 35.3858 11.789 35.1909 12.0294 35.1909ZM23.0427 35.1909H19.458C19.2175 35.1909 19.0227 35.3858 19.0227 35.6262V39.211C19.0227 39.4514 19.2175 39.6463 19.458 39.6463H23.0427C23.2832 39.6463 23.4781 39.4514 23.4781 39.211V35.6262C23.4781 35.3858 23.2832 35.1909 23.0427 35.1909ZM26.883 35.1909H30.4677C30.7082 35.1909 30.9031 35.3858 30.9031 35.6262V39.211C30.9031 39.4514 30.7082 39.6463 30.4677 39.6463H26.883C26.6425 39.6463 26.4477 39.4514 26.4477 39.211V35.6262C26.4477 35.3858 26.6425 35.1909 26.883 35.1909Z" fill="white"/>
<g filter="url(#filter0_d_26_1111)">
<circle cx="21.2185" cy="19.5632" r="4.01584" fill="white"/>
</g>
<rect x="20.563" y="17.1526" width="1.25269" height="4.76024" rx="0.626347" fill="#ED4C4C"/>
<rect x="18.8086" y="20.1594" width="1.25269" height="4.76024" rx="0.626347" transform="rotate(-90 18.8086 20.1594)" fill="#ED4C4C"/>
<path opacity="0.6" d="M33.8848 27.7542H45.4232C46.048 27.7542 46.5545 28.2606 46.5545 28.8854V28.8854C46.5545 29.5101 46.048 30.0166 45.4232 30.0166H33.8848V27.7542Z" fill="white"/>
</g>
</g>
<defs>
<filter id="filter0_d_26_1111" x="16.1724" y="14.7232" width="10.0922" height="10.0922" filterUnits="userSpaceOnUse" color-interpolation-filters="sRGB">
<feFlood flood-opacity="0" result="BackgroundImageFix"/>
<feColorMatrix in="SourceAlpha" type="matrix" values="0 0 0 0 0 0 0 0 0 0 0 0 0 0 0 0 0 0 127 0" result="hardAlpha"/>
<feOffset dy="0.206044"/>
<feGaussianBlur stdDeviation="0.515111"/>
<feColorMatrix type="matrix" values="0 0 0 0 0.629279 0 0 0 0 0.654556 0 0 0 0 0.720524 0 0 0 1 0"/>
<feBlend mode="normal" in2="BackgroundImageFix" result="effect1_dropShadow_26_1111"/>
<feBlend mode="normal" in="SourceGraphic" in2="effect1_dropShadow_26_1111" result="shape"/>
</filter>
<clipPath id="clip0_26_1111">
<rect width="50" height="50" fill="white"/>
</clipPath>
</defs>
</svg>
