<svg width="50" height="48" viewBox="0 0 50 48" fill="none" xmlns="http://www.w3.org/2000/svg">
<mask id="mask0" mask-type="alpha" maskUnits="userSpaceOnUse" x="0" y="0" width="50" height="48">
<rect width="50" height="47.9512" fill="#C4C4C4"/>
</mask>
<g mask="url(#mask0)">
<path d="M35.6461 9.67267H28.9079V3.2105C28.9079 2.48665 28.315 1.91806 27.5602 1.91806H6.04037C3.80309 1.91806 1.99741 3.64984 1.99741 5.79537V42.1559C1.99741 44.3012 3.80309 46.0332 6.04037 46.0332H32.9508C35.1881 46.0332 36.9938 44.3012 36.9938 42.1559V10.9651C36.9938 10.2413 36.4009 9.67267 35.6461 9.67267Z" fill="#567FEA"/>
<path d="M36.9909 12.2575H27.5573C26.8124 12.2575 26.2096 11.6795 26.2096 10.9651V1.91806H29.1471C30.2052 1.91806 31.2422 2.32949 31.9898 3.04765L35.8143 6.7167C36.5618 7.43616 36.9909 8.42814 36.9909 9.44038V12.2575Z" fill="#BCCFFF"/>
<path d="M46.802 15.7729C45.2928 14.2995 42.5975 14.2995 41.0879 15.7729L39.7133 17.1171L38.743 18.0217C38.2037 18.5128 38.2037 19.34 38.743 19.8311L40.6566 21.6665L42.5704 23.5016C43.0554 24.0186 43.9721 24.0186 44.4571 23.5016L45.4274 22.597L46.802 21.2528C48.3921 19.8052 48.3921 17.2203 46.802 15.7729Z" fill="#E88080"/>
<path d="M31.441 30.5067L28.6647 27.8442C28.6111 27.7926 28.5571 27.7926 28.5032 27.8442L28.4226 27.896C28.2607 28.0511 28.1528 28.232 28.0988 28.413L26.1852 33.9188C25.9964 34.4356 26.1583 34.9268 26.5087 35.237V35.2627C26.886 35.5988 27.398 35.728 27.8833 35.5471L33.6243 33.7118C33.8131 33.66 34.0016 33.5567 34.1632 33.4016L34.2172 33.3498C34.2712 33.2982 34.2712 33.2465 34.2172 33.1947C33.3279 32.3161 32.3576 31.3855 31.441 30.5067Z" fill="#FEDBAB"/>
<path d="M27.5595 17.4273H8.73501C6.95637 17.4273 6.95637 14.8424 8.73501 14.8424H27.5595C29.3382 14.8424 29.3382 17.4273 27.5595 17.4273Z" fill="white"/>
<path d="M22.1689 22.597H8.73501C6.95637 22.597 6.95637 20.0121 8.73501 20.0121H22.1689C23.9477 20.0121 23.9477 22.597 22.1689 22.597Z" fill="white"/>
<path d="M22.1689 27.7667H8.73501C6.95637 27.7667 6.95637 25.1818 8.73501 25.1818H22.1689C23.9477 25.1818 23.9477 27.7667 22.1689 27.7667Z" fill="white"/>
<path d="M22.1689 32.9363H8.73501C6.95637 32.9363 6.95637 30.3515 8.73501 30.3515H22.1689C23.9477 30.3515 23.9477 32.9363 22.1689 32.9363Z" fill="white"/>
<path d="M27.5566 40.8632H19.4707C17.6921 40.8632 17.6921 38.2783 19.4707 38.2783H27.5566C29.3353 38.2783 29.3353 40.8632 27.5566 40.8632Z" fill="white"/>
<path d="M31.4414 30.5065C32.3581 31.3853 33.3283 32.3159 34.2177 33.1947C34.2717 33.2465 34.2717 33.2982 34.2177 33.3498L34.1637 33.4016C34.0022 33.5566 33.8137 33.66 33.6247 33.7117L27.8837 35.5471C27.3984 35.7279 26.8865 35.5987 26.5091 35.2627V35.2368L31.4414 30.5065Z" fill="#FEC478"/>
<path d="M46.8016 21.2525L45.4269 22.5968L44.4566 23.5014C43.9717 24.0184 43.055 24.0184 42.57 23.5014L40.6562 21.6662L46.8016 15.7726C48.3918 17.2201 48.3918 19.805 46.8016 21.2525Z" fill="#D45B5B"/>
<path d="M45.4287 22.5972L44.4584 23.5018C39.1218 28.5941 40.9004 26.888 36.1026 31.4891C36.1026 31.5407 34.1891 33.376 34.1621 33.4019C34.0006 33.557 33.8121 33.6603 33.6231 33.7121L28.0977 28.4131C28.1517 28.2322 28.2596 28.0512 28.4215 27.8962C28.4484 27.8703 30.362 26.035 30.416 26.035C33.9197 22.6746 32.1946 24.3549 38.7444 18.022L39.6877 17.0914L45.4287 22.5972Z" fill="#4CE1C6"/>
<path d="M45.4324 22.597L44.4621 23.5017C39.1255 28.5939 40.9041 26.8878 36.1064 31.489C36.1064 31.5406 34.1928 33.3758 34.1659 33.4018C34.0043 33.5569 33.8158 33.6602 33.6269 33.712L30.8776 31.0753L42.5756 19.8571L45.4324 22.597Z" fill="#50CFBA"/>
</g>
</svg>
